<mxfile host="app.diagrams.net" modified="2020-09-18T23:18:35.970Z" agent="5.0 (Windows NT 10.0; Win64; x64) AppleWebKit/537.36 (KHTML, like Gecko) Chrome/85.0.4183.102 Safari/537.36" etag="GAmIuAtmpAV-kteTgke1" version="13.6.10" type="github" pages="2">
  <diagram id="kbBsA2tWWtWuHOdOnd8x" name="Question 1">
    <mxGraphModel dx="782" dy="420" grid="1" gridSize="10" guides="1" tooltips="1" connect="1" arrows="1" fold="1" page="1" pageScale="1" pageWidth="827" pageHeight="1169" math="0" shadow="0">
      <root>
        <mxCell id="0" />
        <mxCell id="1" parent="0" />
        <mxCell id="Rsk4lnEA3JJpgtATmgz1-1" value="&lt;font style=&quot;font-size: 14px&quot;&gt;BURGER&lt;br&gt;&lt;br&gt;&lt;u&gt;&lt;b&gt;BurgerID&lt;/b&gt;&lt;/u&gt;&lt;br&gt;&lt;b&gt;Name&lt;br&gt;Description&lt;/b&gt;&lt;br&gt;{DietaryRestriction}&lt;br&gt;&lt;/font&gt;" style="whiteSpace=wrap;html=1;align=center;" vertex="1" parent="1">
          <mxGeometry x="320" y="80" width="140" height="180" as="geometry" />
        </mxCell>
        <mxCell id="Rsk4lnEA3JJpgtATmgz1-2" value="&lt;font style=&quot;font-size: 14px&quot;&gt;INGREDIENT&lt;br&gt;&lt;br&gt;&lt;b&gt;&lt;u&gt;IngredientID&lt;/u&gt;&lt;/b&gt;&lt;br&gt;&lt;b&gt;Name&lt;br&gt;Quantity&lt;/b&gt;&lt;br&gt;MeasurementType&lt;br&gt;&lt;/font&gt;" style="whiteSpace=wrap;html=1;align=center;" vertex="1" parent="1">
          <mxGeometry x="30" y="140" width="140" height="180" as="geometry" />
        </mxCell>
        <mxCell id="Rsk4lnEA3JJpgtATmgz1-3" value="&lt;font style=&quot;font-size: 14px&quot;&gt;BEER&lt;br&gt;&lt;br&gt;&lt;u&gt;&lt;b&gt;BeerID&lt;/b&gt;&lt;/u&gt;&lt;br&gt;&lt;b&gt;Name(Beer, Company)&lt;br&gt;Style&lt;br&gt;ABV&lt;/b&gt;&lt;br&gt;&lt;/font&gt;" style="whiteSpace=wrap;html=1;align=center;" vertex="1" parent="1">
          <mxGeometry x="590" y="140" width="160" height="180" as="geometry" />
        </mxCell>
        <mxCell id="Rsk4lnEA3JJpgtATmgz1-4" value="" style="edgeStyle=entityRelationEdgeStyle;fontSize=12;html=1;endArrow=ERoneToMany;endFill=0;exitX=1.052;exitY=0.539;exitDx=0;exitDy=0;exitPerimeter=0;entryX=-0.01;entryY=0.565;entryDx=0;entryDy=0;entryPerimeter=0;startArrow=ERzeroToMany;startFill=1;" edge="1" parent="1" source="Rsk4lnEA3JJpgtATmgz1-2" target="Rsk4lnEA3JJpgtATmgz1-1">
          <mxGeometry width="100" height="100" relative="1" as="geometry">
            <mxPoint x="200" y="220" as="sourcePoint" />
            <mxPoint x="300" y="120" as="targetPoint" />
          </mxGeometry>
        </mxCell>
        <mxCell id="Rsk4lnEA3JJpgtATmgz1-5" value="" style="edgeStyle=entityRelationEdgeStyle;fontSize=12;html=1;endArrow=ERzeroToOne;endFill=1;exitX=1.048;exitY=0.576;exitDx=0;exitDy=0;exitPerimeter=0;entryX=0;entryY=0.5;entryDx=0;entryDy=0;startArrow=ERoneToMany;startFill=0;" edge="1" parent="1" source="Rsk4lnEA3JJpgtATmgz1-1" target="Rsk4lnEA3JJpgtATmgz1-3">
          <mxGeometry width="100" height="100" relative="1" as="geometry">
            <mxPoint x="480" y="210" as="sourcePoint" />
            <mxPoint x="580" y="110" as="targetPoint" />
          </mxGeometry>
        </mxCell>
        <mxCell id="Rsk4lnEA3JJpgtATmgz1-6" value="&lt;font style=&quot;font-size: 14px&quot;&gt;Made with&lt;/font&gt;" style="text;html=1;strokeColor=none;fillColor=none;align=center;verticalAlign=middle;whiteSpace=wrap;rounded=0;" vertex="1" parent="1">
          <mxGeometry x="180" y="170" width="90" height="20" as="geometry" />
        </mxCell>
        <mxCell id="Rsk4lnEA3JJpgtATmgz1-7" value="&lt;font style=&quot;font-size: 14px&quot;&gt;Pairs with&lt;/font&gt;" style="text;html=1;strokeColor=none;fillColor=none;align=center;verticalAlign=middle;whiteSpace=wrap;rounded=0;" vertex="1" parent="1">
          <mxGeometry x="490" y="160" width="70" height="20" as="geometry" />
        </mxCell>
      </root>
    </mxGraphModel>
  </diagram>
  <diagram id="Og4VXqPv2_d65qeGa0BY" name="Question 2">
    <mxGraphModel dx="782" dy="420" grid="1" gridSize="10" guides="1" tooltips="1" connect="1" arrows="1" fold="1" page="1" pageScale="1" pageWidth="827" pageHeight="1169" math="0" shadow="0">
      <root>
        <mxCell id="5LjrZSEDTQGCF-TwAdYH-0" />
        <mxCell id="5LjrZSEDTQGCF-TwAdYH-1" parent="5LjrZSEDTQGCF-TwAdYH-0" />
      </root>
    </mxGraphModel>
  </diagram>
</mxfile>
